<?xml version="1.0" encoding="UTF-8" standalone="no"?>
<svg xmlns="http://www.w3.org/2000/svg" viewBox="0 0 512 512" width="512" height="512">
  <circle cx="256" cy="256" r="256" fill="#6200ea" />
  <g fill="#ffffff">
    <path d="M370 175c-24.6 0-47.6 12.5-61 33.3-13.4-20.8-36.4-33.3-61-33.3-38.6 0-70 31.4-70 70 0 69.2 123 138.7 128.1 141.4 1 .5 2 .8 3 .8s2.1-.3 3-.8C317.1 383.7 440 314.2 440 245c0-38.6-31.4-70-70-70z" />
    <path d="M256 136c-6.6 0-12 5.4-12 12v25c0 6.6 5.4 12 12 12s12-5.4 12-12v-25c0-6.6-5.4-12-12-12zM176 165c-4.7-4.7-12.3-4.7-17 0l-17.8 17.8c-4.7 4.7-4.7 12.3 0 17 4.7 4.7 12.3 4.7 17 0l17.8-17.8c4.7-4.7 4.7-12.3 0-17zM353 165c-4.7-4.7-12.3-4.7-17 0-4.7 4.7-4.7 12.3 0 17l17.8 17.8c4.7 4.7 12.3 4.7 17 0 4.7-4.7 4.7-12.3 0-17L353 165z" />
  </g>
  <path d="M150 245c0 38.6 31.4 70 70 70 24.6 0 47.6-12.5 61-33.3 13.4 20.8 36.4 33.3 61 33.3 38.6 0 70-31.4 70-70 0-69.2-123-138.7-128.1-141.4-1-.5-2-.8-3-.8s-2.1.3-3 .8C163 106.3 150 175.8 150 245z" fill="#03dac6" fill-opacity="0.4"/>
</svg>
